<svg xmlns="http://www.w3.org/2000/svg"  viewBox="0 0 64 64" width="1024px" height="1024px"><linearGradient id="RvCVDPuoAvNR_WbjuX4gia" x1="59.296" x2="59.296" y1="29.348" y2="56.852" gradientTransform="matrix(-1 0 0 1 76.06 0)" gradientUnits="userSpaceOnUse"><stop offset="0" stop-color="#8cc5fc"/><stop offset="1" stop-color="#d5a8fb"/></linearGradient><path fill="url(#RvCVDPuoAvNR_WbjuX4gia)" d="M10.31,34.75c2.19,0.5,4.177,0.368,5.815-0.125c4.375-1.75,8.109-5.638,7.125-5.25	c1.055-0.045-1.256,4.442-1.857,6.904c0,0-1.104,4.754-1.621,7.571c-0.375,2.042,0.071,3.635,0.863,5.718	c0.797,2.097,2.561,4.191,5.394,5.233c0,0-2.614,1.331-5.694,2.273c-1.229,0.376,2.696,2.667,1.474,2.926	c-4.125,0.875-9.618-2.154-10.625-3.75c-2.135-3.385-4.35-6.417-3.5-12.75C8.072,40.615,10.31,34.75,10.31,34.75z"/><linearGradient id="RvCVDPuoAvNR_WbjuX4gib" x1="47.296" x2="47.296" y1="29.333" y2="56.838" gradientUnits="userSpaceOnUse"><stop offset="0" stop-color="#8cc5fc"/><stop offset="1" stop-color="#d5a8fb"/></linearGradient><path fill="url(#RvCVDPuoAvNR_WbjuX4gib)" d="M53.75,34.75c-1.203-0.024-5.237,0.243-6.875-0.25c0.127,1.27,0.59,2.487,1.396,3.652	c-1.055-0.045-4.45-1.273-5.604-1.873c0,0,1.104,4.754,1.621,7.571c0.375,2.042-0.071,3.635-0.863,5.718	c-0.797,2.097-2.561,4.191-5.394,5.233c0,0,2.614,1.331,5.694,2.273c1.229,0.376-2.696,2.667-1.474,2.926	c4.125,0.875,9.618-2.154,10.625-3.75c2.135-3.385,4.35-6.417,3.5-12.75C55.988,40.615,53.75,34.75,53.75,34.75z"/><linearGradient id="RvCVDPuoAvNR_WbjuX4gic" x1="31.961" x2="31.961" y1="1" y2="61.881" gradientUnits="userSpaceOnUse"><stop offset="0" stop-color="#1a6dff"/><stop offset="1" stop-color="#c822ff"/></linearGradient><path fill="url(#RvCVDPuoAvNR_WbjuX4gic)" d="M32.028,56.804c-0.248,0-0.489-0.037-0.719-0.111l-4.713-1.504l0.607-1.905l4.715,1.505 c0.066,0.021,0.156,0.02,0.22,0l4.58-1.462l0.607,1.905l-4.58,1.462C32.517,56.767,32.275,56.804,32.028,56.804z"/><linearGradient id="RvCVDPuoAvNR_WbjuX4gid" x1="25.5" x2="25.5" y1="39.451" y2="52.332" gradientUnits="userSpaceOnUse"><stop offset="0" stop-color="#8cc5fc"/><stop offset="1" stop-color="#d5a8fb"/></linearGradient><path fill="url(#RvCVDPuoAvNR_WbjuX4gid)" d="M28.001,41.34v1.33c0,0.141-0.016,0.266-0.047,0.407c-0.172,1.079-1.111,1.893-2.237,1.924	h-0.063c-1.048,0-1.955-0.688-2.237-1.721l-0.188-0.688l-0.141-0.501c-0.328-1.158,0.282-2.362,1.392-2.8l0.329-0.125	C26.343,38.555,28.001,39.697,28.001,41.34z"/><linearGradient id="RvCVDPuoAvNR_WbjuX4gie" x1="38.5" x2="38.5" y1="39.451" y2="52.332" gradientUnits="userSpaceOnUse"><stop offset="0" stop-color="#8cc5fc"/><stop offset="1" stop-color="#d5a8fb"/></linearGradient><path fill="url(#RvCVDPuoAvNR_WbjuX4gie)" d="M40.911,42.09l-0.141,0.501l-0.188,0.688C40.301,44.312,39.394,45,38.346,45h-0.063	c-1.126-0.031-2.065-0.845-2.237-1.924c-0.031-0.141-0.047-0.266-0.047-0.407v-1.33c0-1.643,1.658-2.785,3.191-2.174l0.329,0.125	C40.63,39.728,41.24,40.933,40.911,42.09z"/><linearGradient id="RvCVDPuoAvNR_WbjuX4gif" x1="32" x2="32" y1="40.538" y2="52.163" gradientUnits="userSpaceOnUse"><stop offset="0" stop-color="#8cc5fc"/><stop offset="1" stop-color="#d5a8fb"/></linearGradient><path fill="url(#RvCVDPuoAvNR_WbjuX4gif)" d="M29,47v1.505C29,49.883,30.187,51,31.651,51h0.699C33.813,51,35,49.883,35,48.505V47H29z"/><linearGradient id="RvCVDPuoAvNR_WbjuX4gig" x1="48.373" x2="48.373" y1="1" y2="61.881" gradientUnits="userSpaceOnUse"><stop offset="0" stop-color="#1a6dff"/><stop offset="1" stop-color="#c822ff"/></linearGradient><path fill="url(#RvCVDPuoAvNR_WbjuX4gig)" d="M45.681,58.361l-0.861-1.805c2.404-1.147,4.368-3.131,5.255-5.308l1.852,0.754 C50.842,54.667,48.565,56.985,45.681,58.361z"/><linearGradient id="RvCVDPuoAvNR_WbjuX4gih" x1="15.627" x2="15.627" y1="1" y2="61.881" gradientUnits="userSpaceOnUse"><stop offset="0" stop-color="#1a6dff"/><stop offset="1" stop-color="#c822ff"/></linearGradient><path fill="url(#RvCVDPuoAvNR_WbjuX4gih)" d="M18.319,58.361c-2.885-1.376-5.161-3.694-6.245-6.359l1.852-0.754 c0.887,2.177,2.851,4.161,5.255,5.308L18.319,58.361z"/><linearGradient id="RvCVDPuoAvNR_WbjuX4gii" x1="32.004" x2="32.004" y1="5.758" y2="61.812" gradientUnits="userSpaceOnUse"><stop offset="0" stop-color="#1a6dff"/><stop offset="1" stop-color="#c822ff"/></linearGradient><path fill="url(#RvCVDPuoAvNR_WbjuX4gii)" d="M61.239,31.03c-0.816,0.363-1.681,0.547-2.569,0.547c-2.082,0-4.031-1.022-5.225-2.75	L48.7,22.233l-0.032-0.045c-0.029-0.041-0.061-0.079-0.094-0.117l-0.207-0.26c-0.154-0.196-0.31-0.391-0.474-0.583l-0.179-0.197	c-1.155-1.648-2.564-3.074-4.155-4.254c-0.534,0.351-1.259,0.673-2.131,0.957c1.824,1.173,3.424,2.685,4.681,4.492l0.263,0.302	c0.127,0.148,0.247,0.298,0.366,0.449l0.01,0.09l0.299,0.294l4.763,6.618c1.475,2.134,3.854,3.454,6.43,3.586	c-1.082,0.549-2.276,0.865-3.523,0.92l-1.169,0.051l2.154,10.614c0.708,3.485-0.11,6.883-2.305,9.568	c-2.193,2.683-5.543,4.285-8.96,4.285l-0.181-0.002c0.817-0.304,1.635-0.693,2.326-1.189l2.385-1.71L46.034,56	c-2.452-0.084-4.096-0.479-6.1-1.471c-0.143-0.064-0.285-0.129-0.426-0.194c4.066-2.159,6.151-6.429,5.056-10.848l-1.784-7.204	l-0.398-0.208c-2.145-1.123-4.237-2.839-6.053-4.963c-0.766-0.896-0.88-1.044-1.211-1.476l-1.665-2.166l-0.292,2.857	c-0.178,1.705-0.375,3.586,0.357,5.681c-5.144-1.278-7.48-4.869-8.541-7.816l-1.16-3.223L21.185,36.29l-1.749,7.198	c-1.096,4.42,0.989,8.69,5.056,10.849c-0.151,0.07-0.306,0.14-0.46,0.209c-1.97,0.976-3.613,1.37-6.065,1.455l-2.934,0.102	l2.385,1.71c0.691,0.496,1.509,0.885,2.326,1.189l-0.18,0.002c-3.418,0-6.768-1.602-8.961-4.285	c-2.194-2.684-3.013-6.082-2.305-9.568l2.154-10.614l-1.169-0.051c-1.247-0.055-2.441-0.371-3.523-0.92	c2.575-0.132,4.954-1.451,6.418-3.571l4.823-6.677l0.299-0.319v-0.071c0.106-0.134,0.214-0.268,0.328-0.4l0.262-0.301	c1.21-1.739,2.735-3.208,4.474-4.361c-0.879-0.261-1.621-0.558-2.202-0.884c-1.477,1.139-2.788,2.498-3.876,4.05l-0.178,0.196	c-0.165,0.193-0.32,0.388-0.475,0.584l-0.166,0.214c-0.048,0.052-0.094,0.107-0.138,0.167l-4.786,6.649	c-1.182,1.712-3.131,2.734-5.212,2.734c-0.889,0-1.753-0.184-2.569-0.547l-2.355-1.048l1.268,2.899l0.11,0.122	c1.664,1.83,3.853,3.001,6.255,3.368l-1.702,8.383c-0.829,4.085,0.136,8.074,2.717,11.231c2.569,3.143,6.498,5.019,10.51,5.019	L19.9,61c0.616-0.016,2.766-0.143,4.574-1.12l2.815-1.52l-3.181-0.354c-0.019-0.002-1.096-0.126-2.388-0.472	c1.076-0.264,2.089-0.647,3.164-1.18c0.87-0.391,2.376-1.09,2.682-1.373l1.275-1.181l-1.662-0.509	c-4.44-1.361-6.827-5.194-5.804-9.323l1.691-6.836l1.292-5.561c2.257,3.805,5.991,6.173,10.769,6.764l2.043,0.252l-1.063-1.762	c-0.907-1.501-1.128-2.857-1.112-4.197c1.823,2.087,3.905,3.806,6.058,5.002l1.569,6.338c1.023,4.128-1.363,7.962-5.804,9.323	l-1.662,0.509l1.275,1.181c0.306,0.283,1.812,0.981,2.647,1.356c1.095,0.542,2.118,0.93,3.2,1.196	c-1.293,0.346-2.371,0.47-2.39,0.472l-3.182,0.354l2.816,1.52c1.809,0.977,3.959,1.104,4.575,1.12l0.337,0.004	c4.011,0,7.939-1.876,10.509-5.02c2.581-3.158,3.546-7.146,2.717-11.231l-1.702-8.383c2.402-0.367,4.591-1.538,6.255-3.368	l0.109-0.121l1.277-2.902L61.239,31.03z"/><linearGradient id="RvCVDPuoAvNR_WbjuX4gij" x1="31.95" x2="31.95" y1="5.5" y2="21.847" gradientUnits="userSpaceOnUse"><stop offset="0" stop-color="#8ac3fa"/><stop offset="1" stop-color="#d3a6f9"/></linearGradient><polyline fill="url(#RvCVDPuoAvNR_WbjuX4gij)" points="29.95,13.75 29.95,17.793 28.45,19.293 31.95,24.609 35.45,19.293 33.95,17.793 33.95,14.063"/><linearGradient id="RvCVDPuoAvNR_WbjuX4gik" x1="31.95" x2="31.95" y1="5.5" y2="21.847" gradientUnits="userSpaceOnUse"><stop offset="0" stop-color="#8ac3fa"/><stop offset="1" stop-color="#d3a6f9"/></linearGradient><polyline fill="url(#RvCVDPuoAvNR_WbjuX4gik)" points="33.95,9.438 33.95,7.557 34.95,6.557 31.95,2 28.95,6.557 29.95,7.557 29.95,9.438"/><g><linearGradient id="RvCVDPuoAvNR_WbjuX4gil" x1="31.95" x2="31.95" y1="1" y2="61.881" gradientUnits="userSpaceOnUse"><stop offset="0" stop-color="#1a6dff"/><stop offset="1" stop-color="#c822ff"/></linearGradient><polygon fill="url(#RvCVDPuoAvNR_WbjuX4gil)" points="31.95,26.428 27.167,19.162 28.95,17.379 28.95,13.75 30.95,13.75 30.95,18.207 29.733,19.424 31.95,22.791 34.167,19.424 32.95,18.207 32.95,14.063 34.95,14.063 34.95,17.379 36.733,19.162"/><g><linearGradient id="RvCVDPuoAvNR_WbjuX4gim" x1="31.95" x2="31.95" y1="1" y2="61.881" gradientUnits="userSpaceOnUse"><stop offset="0" stop-color="#1a6dff"/><stop offset="1" stop-color="#c822ff"/></linearGradient><polygon fill="url(#RvCVDPuoAvNR_WbjuX4gim)" points="34.95,9.438 32.95,9.438 32.95,7.143 33.667,6.426 31.95,3.819 30.233,6.426 30.95,7.143 30.95,9.438 28.95,9.438 28.95,7.971 27.667,6.688 31.95,0.181 36.233,6.688 34.95,7.971"/></g></g><linearGradient id="RvCVDPuoAvNR_WbjuX4gin" x1="31.95" x2="31.95" y1="11.711" y2="16.69" gradientUnits="userSpaceOnUse"><stop offset="0" stop-color="#8ac3fa"/><stop offset="1" stop-color="#d3a6f9"/></linearGradient><path fill="url(#RvCVDPuoAvNR_WbjuX4gin)" d="M44.706,15.741c1.448-0.597,2.062-1.15,2.219-1.396C46.358,13.329,41.379,11,31.95,11	c-9.427,0-14.406,2.328-14.975,3.345c0.158,0.244,0.771,0.796,2.22,1.393c0.307-1.287,2.115-3.388,12.755-3.388	C42.598,12.351,44.401,14.455,44.706,15.741z"/><g><linearGradient id="RvCVDPuoAvNR_WbjuX4gio" x1="31.95" x2="31.95" y1="1" y2="61.881" gradientUnits="userSpaceOnUse"><stop offset="0" stop-color="#1a6dff"/><stop offset="1" stop-color="#c822ff"/></linearGradient><path fill="url(#RvCVDPuoAvNR_WbjuX4gio)" d="M40.414,20.006l-0.016-0.018C40.324,19.995,40.252,20,40.188,20 c-1.255,0-1.912-0.844-1.912-1.678c0-0.835,0.716-1.47,1.789-1.594c0.519-0.119,0.896-0.235,1.166-0.334 c-1.308-0.473-4.442-1.042-9.28-1.042s-7.973,0.569-9.281,1.042c0.292,0.107,0.706,0.232,1.288,0.362l0.184,0.045 c0.167,0.041,0.355,0.086,0.588,0.198c0.413,0.198,0.827,0.684,0.827,1.324c0,1.13-1.409,1.954-2.944,1.508 c-3.182-0.629-8.661-2.208-8.661-5.479c0-4.169,9.055-6.351,18-6.351s18,2.181,18,6.351c0,3.321-5.612,4.898-8.957,5.543 L40.414,20.006z M31.95,10c-9.767,0-16,2.577-16,4.351c0,0.81,1.406,1.948,4.437,2.871c-0.162-0.237-0.255-0.508-0.255-0.82 c0-2.754,8.265-3.051,11.818-3.051s11.818,0.297,11.818,3.051c0,0.311-0.092,0.581-0.252,0.816c2.921-0.9,4.434-2.033,4.434-2.867 C47.95,12.577,41.717,10,31.95,10z"/></g></svg>